<svg width="51" height="50" viewBox="0 0 51 50" fill="none" xmlns="http://www.w3.org/2000/svg">
<path d="M47.608 16.0564C47.271 18.3616 46.187 25.8933 40.682 33.2862C35.082 40.8985 27.718 44.5915 25.496 45.7279C23.275 44.5915 15.911 40.8985 10.3108 33.2862C4.80521 25.8937 3.72161 18.3616 3.38501 16.0564L6.73041 14.2611V11.7708L10.0453 9.97417V7.48548C14.632 5.29764 19.684 3.85849 25.496 3.08582C31.309 3.85849 36.361 5.29764 40.947 7.48548V9.97417L44.262 11.7708V14.2611L47.608 16.0564Z" fill="url(#paint0_linear_2352_37432)"/>
<path d="M47.257 12.4728V9.99111L43.942 8.1946V5.59931L42.242 4.78904C37.409 2.48341 32.066 0.943845 25.903 0.124487L25.5 0.0699463L25.097 0.124067C18.934 0.943435 13.591 2.483 8.7589 4.78862L7.0583 5.59889V8.1942L3.7435 9.99071V12.4724L0.141602 14.4053L0.426498 16.4655C1.3809 23.3774 3.8996 29.6327 7.909 35.0617C11.9614 40.5473 17.432 45.035 24.167 48.4037L25.501 49.0711L26.834 48.4037C33.57 45.0354 39.04 40.5473 43.092 35.0617C47.102 29.6327 49.62 23.3774 50.575 16.4655L50.86 14.4053L47.257 12.4728ZM47.608 16.0564C47.271 18.3616 46.187 25.8933 40.682 33.2862C35.082 40.8985 27.718 44.5916 25.496 45.7279C23.275 44.5916 15.911 40.8985 10.3108 33.2862C4.8052 25.8937 3.7216 18.3616 3.385 16.0564L6.7304 14.2611V11.7708L10.0453 9.9742V7.48551C14.632 5.29767 19.684 3.85852 25.496 3.08584C31.309 3.85852 36.361 5.29767 40.947 7.48551V9.9742L44.262 11.7708V14.2611L47.608 16.0564ZM23.939 8.47516V40.5254C21.713 38.1541 19.687 35.1873 18.245 32.1809L15.302 33.9415C11.4832 29.7046 8.8712 24.5 7.2115 17.6315C8.0585 16.6444 8.927 15.7638 9.8016 14.978C11.0719 20.7007 12.9216 25.5252 15.752 29.4918L16.821 28.8725C14.933 23.7645 13.8825 18.3827 13.42 12.2323C14.564 11.5072 15.68 10.9216 16.732 10.449C17.134 17.2279 18.411 23.9885 20.553 29.4051L20.696 29.3216L20.542 9.0755C21.685 8.78093 22.805 8.58542 23.939 8.47516ZM39.489 19.5119C40.689 18.1831 40.944 17.2159 40.944 16.0465C40.944 14.3909 39.577 12.9178 37.589 11.6517C36.388 10.8869 34.55 9.96099 31.869 9.21347C30.327 8.79864 28.718 8.547 27.063 8.47516V40.5254C33.796 37.0575 41.8 27.5539 41.84 22.7192C41.853 21.2408 41.072 20.2748 39.489 19.5119ZM30.373 12.3079C32.031 12.3079 37.394 14.0045 37.394 16.1474C37.394 16.9196 36.713 18.0265 34.591 19.1413L30.373 21.4044V12.3079ZM34.552 30.0815C33.604 31.1744 32.052 32.8416 30.373 34.1398V24.9443C30.373 24.9443 36.459 21.5177 36.682 21.3714C38.504 21.8328 38.411 23.1737 38.411 23.313C38.41 25.0012 36.685 27.6156 34.552 30.0815Z" fill="#FFC200"/>
<defs>
<linearGradient id="paint0_linear_2352_37432" x1="3.38461" y1="24.4069" x2="47.608" y2="24.4069" gradientUnits="userSpaceOnUse">
<stop stop-color="#4047FF"/>
<stop offset="1" stop-color="#04006C"/>
</linearGradient>
</defs>
</svg>
